<svg width="162" height="33" viewBox="0 0 162 33" fill="none" xmlns="http://www.w3.org/2000/svg">
<g clip-path="url(#clip0_256_67)">
<path d="M11.4124 32.0621V6.93433H27.1748V10.184H15.1994V17.7582H26.3304V21.0079H15.1994V28.8124H27.3027V32.0621H11.4124Z" fill="#04AC7D"/>
<path d="M33.009 20.8801V32.0622H29.3755V13.2036H32.9067V16.2998H33.1626C33.5976 15.2762 34.2629 14.4574 35.1585 13.8689C36.0796 13.2803 37.2311 12.9733 38.6641 12.9733C39.9435 12.9733 41.0694 13.2291 42.0161 13.7665C42.9885 14.3039 43.7306 15.0971 44.2679 16.1462C44.8053 17.1953 45.0612 18.5004 45.0612 20.0868V32.0622H41.4532V20.5474C41.4532 19.1912 41.095 18.1165 40.3785 17.3233C39.662 16.53 38.6897 16.1462 37.4358 16.1462C36.5914 16.1462 35.8238 16.3253 35.1585 16.7092C34.4932 17.093 33.9558 17.6304 33.572 18.3212C33.2137 19.0121 33.009 19.8821 33.009 20.8801Z" fill="#04AC7D"/>
<path d="M55.8593 32.4461C54.0425 32.4461 52.4816 32.0367 51.1766 31.1922C49.8716 30.3478 48.8481 29.2219 48.1316 27.7634C47.4151 26.3049 47.0569 24.616 47.0569 22.7481C47.0569 20.8289 47.4151 19.1401 48.1572 17.656C48.8992 16.1719 49.8972 15.046 51.2022 14.2271C52.5072 13.4083 54.0425 12.9989 55.8081 12.9989C57.2411 12.9989 58.5205 13.2548 59.6464 13.7921C60.7723 14.3039 61.6678 15.046 62.3587 16.0183C63.0496 16.9651 63.459 18.091 63.587 19.3448H60.0046C59.8767 18.7563 59.6464 18.1933 59.2881 17.7072C58.9299 17.221 58.4693 16.8116 57.9064 16.5301C57.3434 16.2486 56.6525 16.0951 55.8593 16.0951C54.8358 16.0951 53.9402 16.351 53.1981 16.8883C52.4304 17.4257 51.8419 18.1933 51.4069 19.1657C50.9719 20.1636 50.7672 21.3151 50.7672 22.6713C50.7672 24.0275 50.9719 25.2301 51.3813 26.2281C51.7907 27.2516 52.3793 28.0193 53.1725 28.5566C53.9402 29.094 54.8358 29.3755 55.8593 29.3755C56.9084 29.3755 57.8296 29.094 58.5717 28.5055C59.3137 27.9169 59.7999 27.1237 60.0046 26.1002H63.587C63.459 27.3284 63.0752 28.4287 62.4099 29.3755C61.7446 30.3222 60.849 31.0899 59.7487 31.6272C58.6484 32.1902 57.3434 32.4461 55.8593 32.4461Z" fill="#04AC7D"/>
<path d="M65.8643 32.0621V6.93433H75.0761C76.8417 6.93433 78.3258 7.2158 79.5029 7.80433C80.6799 8.39286 81.5499 9.1861 82.1129 10.184C82.7014 11.182 82.9829 12.2823 82.9829 13.5361C82.9829 14.5853 82.7782 15.4553 82.3944 16.1717C82.0105 16.8882 81.4988 17.4767 80.859 17.8862C80.2193 18.3212 79.5029 18.6282 78.7352 18.8329V19.0632C79.5796 19.1144 80.3985 19.3703 81.1917 19.882C81.9849 20.3682 82.6502 21.0847 83.162 21.9803C83.6738 22.8759 83.9552 24.0018 83.9552 25.3068C83.9552 26.5862 83.6482 27.7377 83.0596 28.7612C82.4455 29.7847 81.5243 30.578 80.2961 31.1921C79.0423 31.7806 77.4558 32.0877 75.4855 32.0877H65.8643V32.0621ZM69.6513 17.8094H74.7434C75.5878 17.8094 76.3555 17.6559 77.0464 17.3232C77.7373 16.9906 78.2746 16.53 78.684 15.9414C79.0934 15.3529 79.2726 14.6364 79.2726 13.8432C79.2726 12.8197 78.9143 11.9496 78.1723 11.2332C77.4558 10.5423 76.3299 10.184 74.8458 10.184H69.6513V17.8094ZM69.6513 28.838H75.1273C76.944 28.838 78.249 28.4797 79.0423 27.7633C79.8355 27.0468 80.2193 26.1768 80.2193 25.1277C80.2193 24.3344 80.0146 23.5924 79.6308 22.9526C79.2214 22.2874 78.6584 21.7756 77.9164 21.3662C77.1743 20.9823 76.3043 20.7776 75.2808 20.7776H69.6769V28.838H69.6513Z" fill="#04AC7D"/>
<path d="M88.1008 10.3121C87.4611 10.3121 86.9237 10.1074 86.4632 9.67243C86.0026 9.23742 85.7979 8.72566 85.7979 8.13712C85.7979 7.523 86.0281 7.01124 86.4632 6.57623C86.9237 6.14123 87.4611 5.93652 88.1008 5.93652C88.7405 5.93652 89.2779 6.14123 89.7385 6.57623C90.1991 7.01124 90.4293 7.523 90.4293 8.13712C90.4293 8.72566 90.1991 9.23742 89.7385 9.67243C89.2779 10.1074 88.7405 10.3121 88.1008 10.3121ZM86.2584 32.0623V13.2036H89.892V32.0623H86.2584Z" fill="#04AC7D"/>
<path d="M100.716 32.4461C98.9501 32.4461 97.4148 32.0367 96.0842 31.2434C94.7536 30.4246 93.7301 29.2987 93.0136 27.8402C92.2972 26.3816 91.9133 24.6928 91.9133 22.7481C91.9133 20.8034 92.2716 19.0889 93.0136 17.6048C93.7301 16.1463 94.7536 14.9948 96.0842 14.2016C97.4148 13.3827 98.9501 12.9989 100.716 12.9989C102.481 12.9989 104.042 13.4083 105.347 14.2016C106.652 15.0204 107.676 16.1463 108.418 17.6048C109.16 19.0633 109.518 20.7778 109.518 22.7481C109.518 24.6928 109.16 26.3816 108.418 27.8402C107.676 29.2987 106.652 30.4246 105.347 31.2434C104.042 32.0622 102.507 32.4461 100.716 32.4461ZM100.716 29.3755C101.867 29.3755 102.84 29.0684 103.582 28.4543C104.324 27.8402 104.887 27.0469 105.27 26.0234C105.629 25.0254 105.808 23.9251 105.808 22.7225C105.808 21.5198 105.629 20.3939 105.27 19.396C104.912 18.3725 104.349 17.5792 103.582 16.9651C102.84 16.351 101.867 16.0439 100.716 16.0439C99.5643 16.0439 98.6175 16.351 97.8754 16.9651C97.1334 17.5792 96.5704 18.3725 96.1866 19.396C95.8283 20.4195 95.6236 21.5198 95.6236 22.7225C95.6236 23.9251 95.8028 25.0254 96.1866 26.0234C96.5448 27.0213 97.1078 27.8402 97.8754 28.4543C98.6175 29.0684 99.5898 29.3755 100.716 29.3755Z" fill="#04AC7D"/>
<path d="M120.01 13.2037V16.1463H109.365V13.2037H120.01ZM112.282 32.0623V11.0287C112.282 9.85159 112.538 8.87923 113.075 8.11158C113.587 7.31834 114.278 6.75539 115.122 6.34598C115.967 5.96215 116.888 5.75745 117.86 5.75745C118.602 5.75745 119.242 5.80862 119.779 5.93657C120.317 6.06451 120.7 6.16686 120.931 6.26921L120.061 9.23746C119.882 9.18629 119.677 9.10952 119.421 9.05835C119.165 8.98158 118.832 8.95599 118.423 8.95599C117.527 8.95599 116.888 9.18629 116.504 9.62129C116.12 10.0563 115.915 10.7216 115.915 11.5404V32.0623H112.282Z" fill="#04AC7D"/>
<path d="M133.418 24.2834V13.2036H137.051V32.0622H133.469V28.7869H133.264C132.804 29.7849 132.113 30.6293 131.166 31.2946C130.219 31.9599 129.042 32.2925 127.635 32.2925C126.432 32.2925 125.357 32.0367 124.411 31.4993C123.489 30.9619 122.747 30.1687 122.236 29.1196C121.724 28.0705 121.442 26.7655 121.442 25.179V13.2036H125.127V24.7696C125.127 26.049 125.485 27.0469 126.202 27.8146C126.918 28.5822 127.839 28.9661 128.991 28.9405C129.682 28.9405 130.347 28.7613 131.038 28.4287C131.729 28.096 132.292 27.5843 132.752 26.8678C133.213 26.2025 133.418 25.3325 133.418 24.2834Z" fill="#04AC7D"/>
<path d="M148.182 32.446C146.34 32.446 144.753 32.0366 143.397 31.2434C142.041 30.4501 141.017 29.3242 140.275 27.8657C139.559 26.4072 139.175 24.7183 139.175 22.7736C139.175 20.8289 139.533 19.1401 140.25 17.6559C140.966 16.1718 141.964 15.0459 143.269 14.2015C144.574 13.3827 146.084 12.9733 147.849 12.9733C148.924 12.9733 149.948 13.1524 150.946 13.485C151.944 13.8433 152.839 14.3806 153.632 15.1483C154.426 15.8903 155.065 16.8883 155.526 18.0909C155.987 19.2936 156.217 20.7521 156.217 22.441V23.746H141.248V21.008H154.349L152.635 21.9292C152.635 20.7777 152.455 19.7542 152.097 18.8586C151.739 17.963 151.202 17.2721 150.485 16.7859C149.769 16.2742 148.873 16.0439 147.824 16.0439C146.775 16.0439 145.854 16.2998 145.112 16.8115C144.369 17.3233 143.781 17.9886 143.397 18.8074C143.013 19.6518 142.809 20.5474 142.809 21.5454V23.4133C142.809 24.7183 143.039 25.793 143.474 26.7142C143.934 27.6098 144.549 28.3007 145.342 28.7613C146.135 29.2219 147.082 29.4778 148.157 29.4778C148.847 29.4778 149.487 29.3754 150.05 29.1707C150.613 28.966 151.099 28.6589 151.534 28.2495C151.944 27.8401 152.276 27.3539 152.481 26.7398L155.961 27.4051C155.68 28.4286 155.193 29.2987 154.477 30.0663C153.76 30.834 152.865 31.4225 151.816 31.8575C150.767 32.2413 149.538 32.446 148.182 32.446Z" fill="#04AC7D"/>
<path d="M162 6.93433V32.0621H158.366V6.93433H162Z" fill="#04AC7D"/>
<path d="M4.50355 9.00711C6.9908 9.00711 9.00711 6.9908 9.00711 4.50355C9.00711 2.01631 6.9908 0 4.50355 0C2.01631 0 0 2.01631 0 4.50355C0 6.9908 2.01631 9.00711 4.50355 9.00711Z" fill="#04AC7D"/>
</g>
<defs>
<clipPath id="clip0_256_67">
<rect width="162" height="32.4461" fill="white"/>
</clipPath>
</defs>
</svg>
